<svg width="18" height="19" viewBox="0 0 18 19" fill="none" xmlns="http://www.w3.org/2000/svg">
<path d="M9.00012 9.31811C10.0357 9.31811 10.8751 8.47865 10.8751 7.44311C10.8751 6.40758 10.0357 5.56812 9.00012 5.56812C7.96459 5.56812 7.12512 6.40758 7.12512 7.44311C7.12512 8.47865 7.96459 9.31811 9.00012 9.31811Z" stroke="#152B5C" stroke-width="0.562499" stroke-linecap="round" stroke-linejoin="round"/>
<path d="M6.75014 13.4431L13.5001 5.19313M4.50014 9.69313L10.5001 2.56814M5.25014 4.44313L7.50014 6.31813M9.00763 17.1931C8.74213 17.1931 8.61838 17.0799 8.48188 16.6989C8.12188 15.4314 7.44839 14.3364 6.63164 13.3081C5.89214 12.3204 4.80164 11.1961 4.23464 9.91513C2.65964 6.43438 5.10089 2.18714 8.99488 2.19314C12.9961 2.18189 15.4021 6.58138 13.6921 10.1019C13.1897 10.99 12.6022 11.8272 11.9379 12.6016C10.9021 13.8249 9.97138 15.1494 9.52963 16.7011C9.42763 17.0004 9.29713 17.1931 9.00763 17.1931Z" stroke="#152B5C" stroke-width="0.562499" stroke-linecap="round" stroke-linejoin="round"/>
</svg>
