<svg width="25" height="25" viewBox="0 0 25 25" fill="none" xmlns="http://www.w3.org/2000/svg">
<path d="M12.5 11.7932L8.89999 20.7932M10.6766 16.808C11.6558 17.2422 12.7577 17.3129 13.7843 17.0074C14.8109 16.7019 15.6949 16.0402 16.2773 15.1412C16.8598 14.2423 17.1024 13.1651 16.9618 12.1033C16.8211 11.0414 16.3062 10.0646 15.5098 9.34836C14.7134 8.63212 13.6876 8.22346 12.6168 8.19583C11.546 8.16821 10.5005 8.52343 9.66824 9.19764C8.83593 9.87185 8.27141 10.8208 8.07615 11.874C7.88088 12.9272 8.06769 14.0155 8.60299 14.9432" stroke="#152B5C" stroke-width="0.75" stroke-linecap="round" stroke-linejoin="round"/>
<path d="M12.5 21.6931C17.4706 21.6931 21.5 17.6637 21.5 12.6931C21.5 7.72255 17.4706 3.69312 12.5 3.69312C7.52944 3.69312 3.5 7.72255 3.5 12.6931C3.5 17.6637 7.52944 21.6931 12.5 21.6931Z" stroke="#152B5C" stroke-width="0.75" stroke-linecap="round" stroke-linejoin="round"/>
</svg>
