<svg width="19" height="19" viewBox="0 0 19 19" fill="none" xmlns="http://www.w3.org/2000/svg">
<path d="M15.905 5.66562C16.4225 6.37062 16.7675 7.19561 16.9175 8.05812C17.075 8.99562 17 9.94812 16.685 10.8481C16.3863 11.7272 15.8703 12.5166 15.185 13.1431C14.6835 13.6219 14.1119 14.0215 13.49 14.3281C13.7975 15.1306 13.3925 16.0306 12.59 16.3381C12.41 16.4056 12.2225 16.4431 12.035 16.4431C11.6328 16.4415 11.2467 16.2845 10.9574 16.005C10.6681 15.7255 10.498 15.3451 10.4825 14.9431H8.18002C8.09752 15.7981 7.33252 16.4431 6.47752 16.3456C5.68252 16.2706 5.08252 15.6106 5.06752 14.8156C5.07502 14.6731 5.09752 14.5231 5.14252 14.3881C3.95127 13.9916 2.90627 13.2471 2.14252 12.2506C1.89502 11.9206 1.97002 11.4481 2.31502 11.1931C2.45002 11.0881 2.61502 11.0281 2.78752 11.0281C3.32752 11.0281 3.53752 10.8406 3.66502 10.5556C3.84502 10.0156 3.95002 9.45312 3.95752 8.88312C3.98002 8.48562 4.02502 8.09562 4.08502 7.70562C4.34789 6.40711 5.07269 5.24798 6.12502 4.44312C7.37002 3.46812 8.89252 2.94312 10.4675 2.94312C11.54 2.94312 12.5975 3.20562 13.55 3.69312C14.4808 4.15383 15.2882 4.83006 15.905 5.66562ZM13.04 13.6756C14.375 13.0681 15.425 11.9731 15.9425 10.6006C17.1575 6.89562 14 3.73062 10.4675 3.73062C10.205 3.73062 9.93502 3.74562 9.67252 3.78312C7.52002 4.06812 5.30002 5.56812 4.85752 7.81812C4.57252 9.31812 5.00002 11.7856 2.78752 11.7856C3.50002 12.6931 4.49002 13.3906 5.60752 13.7206C6.24502 13.1506 7.22752 13.2106 7.80502 13.8556C7.88752 13.9456 7.95502 14.0431 8.00002 14.1481H10.6625C11.0525 13.3831 11.9975 13.0681 12.7625 13.4731C12.875 13.5331 12.95 13.6006 13.04 13.6756ZM8.72752 8.42562C8.29252 8.44812 7.91002 8.11812 7.88752 7.67562C7.86502 7.24062 8.20252 6.86561 8.63752 6.83561C9.07252 6.81311 9.45502 7.15062 9.47752 7.63062C9.48153 7.72974 9.46584 7.82867 9.43135 7.92168C9.39686 8.01469 9.34426 8.09994 9.2766 8.17249C9.20894 8.24503 9.12755 8.30343 9.03717 8.34431C8.94678 8.38518 8.84918 8.40772 8.75002 8.41061L8.72752 8.42562ZM12.245 8.42562C11.81 8.44812 11.4275 8.11812 11.405 7.67562C11.375 7.24062 11.72 6.86561 12.155 6.83561C12.59 6.81311 12.9725 7.15062 12.995 7.63062C13.01 8.04312 12.6875 8.39562 12.245 8.41061V8.42562ZM7.78252 9.74562C7.73752 9.53561 7.88002 9.31812 8.09002 9.28061C8.30002 9.24311 8.51002 9.37812 8.55502 9.58811C8.68257 9.99233 8.94331 10.3414 9.29472 10.5784C9.64613 10.8154 10.0675 10.9263 10.49 10.8931C11.345 10.9381 12.125 10.4131 12.4175 9.60312C12.5225 9.40812 12.7625 9.31811 12.95 9.43061C13.085 9.50561 13.1675 9.63312 13.1675 9.78312C13.025 10.3156 12.695 10.7806 12.245 11.1031C11.7275 11.4631 11.12 11.6656 10.49 11.6731H10.4075C9.18502 11.7256 8.08252 10.9231 7.76002 9.73812L7.78252 9.74562Z" fill="#152B5C"/>
</svg>
