<svg width="99" height="56" viewBox="0 0 99 56" fill="none" xmlns="http://www.w3.org/2000/svg">
<g clip-path="url(#clip0_139_140)">
<path d="M42.9516 9.54382C42.8856 10.0205 42.7023 10.4311 42.2843 10.6878C41.6977 11.0544 41.001 10.6218 40.8544 10.0131C40.7371 9.52915 39.9964 9.74914 40.1138 10.2331C40.3337 11.1424 41.1844 11.6851 42.101 11.5531C43.003 11.4211 43.575 10.5998 43.6996 9.74181C43.7729 9.25783 43.025 9.05984 42.9516 9.55115V9.54382Z" fill="#152B5C"/>
<path d="M48.6201 10.6509C47.9968 10.0863 47.0435 10.123 46.3028 9.7783C46.2368 9.17699 46.0902 8.59034 45.8555 8.04037C44.5942 5.07781 40.0991 4.73316 37.4445 6.19977C36.4105 6.50042 35.6772 7.59305 35.1859 8.49501C35.1346 8.58301 35.1053 8.68567 35.0686 8.781C35.0613 8.781 35.0539 8.781 35.0466 8.781C29.8768 9.33098 24.9123 6.39043 20.6151 3.80186C18.0559 2.24725 13.8687 -0.524639 10.8695 1.28662C8.11963 2.95123 10.9942 7.0944 12.2775 8.59034C13.5021 10.0203 15.2694 10.9956 17.1906 11.6262C17.1246 11.6262 17.0659 11.6189 17 11.6116C15.218 11.5162 13.5534 11.4502 11.9621 12.3595C9.97489 13.5035 10.9942 16.0774 12.7394 16.774C14.8 17.5953 17.2126 17.9033 19.3979 18.2773C19.8598 18.358 20.3145 18.402 20.7691 18.424C18.5912 19.5313 16.3766 22.0978 19.6398 23.5131C19.7498 23.5571 19.8598 23.5864 19.9698 23.6231C17.4913 25.0604 15.6507 27.0403 14.0081 29.4015C13.3188 30.3915 10.8695 33.5667 12.6881 34.6007C14.0667 35.3853 16.8533 32.1808 17.6526 31.5281C19.1632 30.2888 20.3365 28.7342 21.8838 27.5243C22.7637 26.835 23.519 26.2483 24.223 25.5517C24.069 26.2997 23.9297 27.4143 24.509 27.9643C24.5603 28.0156 24.619 28.0523 24.6777 28.0889C24.2303 28.3163 23.7904 28.5802 23.3724 28.9102C21.8324 30.1129 21.0551 32.1221 19.9992 33.7134C19.7205 34.1314 20.3952 34.5053 20.6738 34.0947C21.7811 32.4301 22.5804 30.5088 24.1937 29.2475C25.7703 28.0156 28.1609 27.7663 30.0748 27.6049C30.4121 27.5756 30.7421 27.5609 31.0794 27.5463C31.3141 27.5096 31.5561 27.5023 31.8054 27.5316C32.5754 27.5243 33.338 27.5316 34.1006 27.5609C34.108 27.5976 34.1226 27.6343 34.1446 27.6709C35.5892 29.9369 39.4024 31.6235 41.9983 30.6702C42.9076 30.3328 42.6363 29.4382 41.9983 28.9909C41.1917 28.4262 40.2971 28.0816 39.3951 27.7663C39.9744 27.7663 40.5537 27.7736 41.133 27.7516C41.3457 27.7516 41.485 27.7296 41.485 27.7296C42.3063 27.7663 42.7683 27.6709 43.4063 27.4216C44.3449 26.9963 45.0635 26.2703 45.7382 25.2144C45.9068 24.9577 45.6722 24.6497 45.3935 24.6424C43.9929 24.5911 42.4896 24.6424 41.0524 24.9137C40.9864 24.8331 40.8984 24.7744 40.7664 24.7671C39.8277 24.7011 38.9111 24.9064 37.9651 24.8697C36.9678 24.8257 36.0439 24.6864 35.0466 24.8331C33.6533 25.0384 32.304 25.7424 31.3141 26.7396C30.3828 26.769 29.4515 26.835 28.5275 26.9816C27.8309 27.0916 27.1489 27.2236 26.4889 27.3996C26.4963 27.3776 26.5109 27.363 26.5256 27.3483C27.0242 26.4097 27.0682 25.2437 26.7749 24.2171C27.9189 24.6424 29.2975 24.7084 30.4268 24.7817C32.6927 24.9357 35.3179 24.4444 37.4665 23.7551C41.5803 22.4205 44.7409 18.3873 45.6502 14.2661C45.6648 14.1855 45.6502 14.1195 45.6355 14.0608C45.9948 13.9655 46.3615 13.9508 46.7281 13.8995C47.1681 13.8335 47.5714 13.6868 47.9821 13.5255C48.4367 13.3422 49.676 12.8508 49.61 12.1909C49.5514 11.6189 49.0454 11.0323 48.6274 10.6509H48.6201ZM39.6737 28.6389C40.0624 28.8002 40.451 29.0056 40.8324 29.1889C41.3603 29.4529 42.1816 29.8635 41.1697 30.1275C39.2338 30.6188 36.3005 29.1889 35.0393 27.5976C35.5746 27.6269 36.1025 27.6563 36.6379 27.6783C36.7259 27.7223 36.8359 27.7369 36.9385 27.6929C36.9532 27.6929 36.9678 27.6929 36.9825 27.6929C37.8698 28.0449 38.7864 28.2723 39.6737 28.6389ZM44.6676 25.405C44.1176 26.131 43.5163 26.615 42.7243 26.8716C41.1037 27.055 39.4831 27.0403 37.8551 26.967C39.7764 25.6324 42.343 25.3684 44.6676 25.405ZM36.1245 25.5077C36.9312 25.4564 37.7818 25.6397 38.5885 25.669C38.6031 25.669 38.6178 25.669 38.6325 25.669C38.0385 25.9403 37.4812 26.285 36.9678 26.703C36.8359 26.835 36.6892 26.923 36.5059 26.945C36.4252 26.9743 36.3299 26.9743 36.2345 26.945C36.1832 26.9376 36.1319 26.9156 36.0879 26.8863C36.0732 26.8863 36.0659 26.8863 36.0512 26.8863C36.0366 26.8863 36.0292 26.8863 36.0146 26.8863C35.9779 26.8863 35.9486 26.879 35.9192 26.8643C35.9046 26.8643 35.8899 26.8643 35.8752 26.857C34.7533 26.791 33.624 26.7323 32.502 26.725C33.5433 25.9623 34.8046 25.5737 36.1245 25.5004V25.5077ZM13.2088 8.49501C12.2041 7.52705 10.6129 5.04848 10.5469 3.6772C10.3635 0.12067 14.998 1.77794 16.604 2.56991C22.0524 5.26847 27.6695 9.74163 33.9906 9.6023C31.3654 11.9562 27.5889 11.8242 24.2083 11.9122C24.1423 11.8389 17.0513 12.1909 13.2088 8.49501ZM14.1254 16.4367C12.9374 16.1727 10.6495 15.1461 12.0795 13.2762C12.8568 12.2642 14.602 12.3082 15.7313 12.3155C17.5279 12.3302 19.3539 12.4475 21.1431 12.5869C25.433 12.9168 31.2921 13.2028 34.6579 10.0056C34.5553 10.3283 34.4893 10.6729 34.3573 10.9736C33.3087 13.2542 30.7054 14.4421 28.5935 15.4687C26.9142 16.2827 25.2056 16.8327 23.475 17.412C20.3365 17.984 17.2273 17.1187 14.1181 16.4367H14.1254ZM18.8772 20.8585C19.6032 19.2013 22.3091 18.5926 23.8637 18.1526C23.981 18.1233 24.091 18.0793 24.2083 18.0426C24.3477 18.006 24.4797 17.9767 24.619 17.94C24.6703 17.9253 24.707 17.9033 24.7363 17.8813C26.2029 17.4047 27.5962 16.8034 28.9895 16.1287C30.5588 15.3734 32.2894 14.5081 33.602 13.2615C33.6166 13.2615 33.6313 13.2542 33.6386 13.2468C33.7853 13.1368 33.9173 13.0195 34.0346 12.9022C33.602 13.8628 33.0593 14.8161 32.6707 15.6887C31.798 17.6687 30.8594 19.5459 29.1288 20.9099C27.8162 21.9438 26.2029 22.5965 24.5897 22.9925C23.431 23.2784 17.6893 23.5644 18.8699 20.8659L18.8772 20.8585ZM20.2998 27.8249C18.5032 29.3282 16.9486 31.1101 15.152 32.6354C14.5507 33.1414 12.4388 34.7693 13.0621 32.5694C13.3994 31.3521 14.3381 30.2815 15.0494 29.2696C16.5893 27.0623 18.4739 25.2804 20.8571 24.0191C20.8718 24.0191 20.8791 24.0044 20.8865 23.9971C20.9305 23.9824 20.9745 23.9678 21.0111 23.9384C22.2358 24.1657 23.541 24.0704 24.8023 23.7624C23.5117 25.4344 21.9058 26.4977 20.3072 27.8396L20.2998 27.8249ZM26.0196 26.505C25.8876 27.0256 25.1616 28.0596 24.9196 27.0696C24.7217 26.263 25.0443 24.3271 25.7556 23.7331C26.2176 24.6131 26.2616 25.537 26.0196 26.4977V26.505ZM38.3318 22.5671C36.5425 23.5278 34.3646 23.7404 32.3774 23.9091C30.7568 24.0484 28.0142 24.2171 26.4523 23.2198C27.5815 22.7725 28.6448 22.1932 29.5321 21.5698C31.0794 20.4772 32.018 18.8713 32.832 17.1993C33.4993 15.8354 34.4673 14.2148 35.0246 12.6455C35.0979 12.9095 35.1786 13.1735 35.2666 13.4155C36.3299 16.2754 40.2897 17.8153 43.0396 16.3927C43.6409 16.0774 44.1542 15.6521 44.6016 15.1534C43.5823 18.3506 41.309 20.9905 38.3318 22.5818V22.5671ZM43.8756 14.8821C41.9617 16.9867 38.6325 16.1947 36.8652 14.4421C35.7432 13.3202 35.5232 11.7509 35.5672 10.2623C35.5672 9.96896 35.6552 9.57297 35.7946 9.16232C35.8092 9.09632 35.8092 9.02299 35.8386 8.957C35.9926 8.48768 36.2345 8.0697 36.5572 7.71771C36.6672 7.57838 37.9945 6.69108 38.5885 6.55176C40.7077 5.80378 43.6116 6.07511 44.8582 7.84971C46.2735 9.85896 45.4229 13.1955 43.8756 14.8894V14.8821ZM47.1241 13.0122C46.6988 13.1588 46.2442 13.1662 45.7968 13.2322C46.1342 12.4035 46.3175 11.5089 46.3322 10.6143C46.6621 10.7316 47.0068 10.8123 47.3514 10.9003C48.0994 11.0836 48.3927 11.5236 48.8034 12.1322C48.9134 12.2935 47.2781 12.9535 47.1241 13.0122Z" fill="#152B5C"/>
<path d="M37.4813 26.6448C37.4813 26.6448 37.6646 26.2562 37.144 26.5495C37.0267 26.6155 36.6233 26.9308 35.8754 26.8721L36.22 27.1875L37.1513 26.8721L37.3053 26.7548" fill="#152B5C"/>
<path d="M56.0558 9.54382C56.1218 10.0205 56.3051 10.4311 56.7231 10.6878C57.3097 11.0544 58.0064 10.6218 58.153 10.0131C58.2703 9.52915 59.011 9.74914 58.8936 10.2331C58.6737 11.1424 57.823 11.6851 56.9064 11.5531C55.9971 11.4211 55.4324 10.5998 55.3078 9.74181C55.2345 9.25783 55.9824 9.05984 56.0558 9.55115V9.54382Z" fill="#152B5C"/>
<path d="M49.4046 12.1841C49.3386 12.844 50.5779 13.3353 51.0326 13.5187C51.4432 13.6873 51.8465 13.8267 52.2865 13.8927C52.6532 13.9513 53.0198 13.966 53.3792 14.054C53.3572 14.1126 53.3498 14.1786 53.3645 14.2593C54.2738 18.3878 57.427 22.421 61.5482 23.7483C63.6894 24.4449 66.322 24.9289 68.5879 24.7749C69.7172 24.7016 71.0958 24.6356 72.2398 24.2103C71.9464 25.2369 71.9904 26.4028 72.4891 27.3415C72.4964 27.3635 72.5111 27.3781 72.5257 27.3928C71.8658 27.2095 71.1911 27.0848 70.4872 26.9748C69.5632 26.8282 68.6319 26.7548 67.7006 26.7328C66.7106 25.7355 65.3614 25.0316 63.9681 24.8262C62.9708 24.6796 62.0468 24.8262 61.0495 24.8629C60.1036 24.8996 59.1869 24.6942 58.2483 24.7602C58.1236 24.7676 58.0283 24.8262 57.9623 24.9069C56.525 24.6282 55.0218 24.5842 53.6211 24.6356C53.3498 24.6429 53.1152 24.9509 53.2765 25.2076C53.9511 26.2635 54.6698 26.9968 55.6084 27.4148C56.2537 27.6641 56.7084 27.7595 57.5297 27.7228C57.5297 27.7228 57.6763 27.7375 57.8816 27.7448C58.461 27.7668 59.0403 27.7668 59.6196 27.7595C58.7176 28.0748 57.823 28.4194 57.0163 28.9841C56.371 29.4314 56.0997 30.326 57.0163 30.6633C59.6196 31.6166 63.4254 29.93 64.87 27.6641C64.892 27.6275 64.9067 27.5908 64.914 27.5541C65.6767 27.5248 66.4466 27.5101 67.2093 27.5248C67.4586 27.4955 67.7006 27.5028 67.9353 27.5395C68.2726 27.5541 68.6026 27.5688 68.9399 27.5981C70.8465 27.7595 73.2444 28.0088 74.821 29.2407C76.4343 30.502 77.2336 32.4159 78.3409 34.0879C78.6122 34.4985 79.2868 34.1245 79.0155 33.7066C77.9595 32.1153 77.1822 30.106 75.6423 28.9034C75.2243 28.5734 74.7843 28.3094 74.337 28.0821C74.3957 28.0454 74.4543 28.0161 74.5057 27.9574C75.0776 27.4075 74.9457 26.2928 74.7917 25.5449C75.503 26.2415 76.2509 26.8282 77.1309 27.5175C78.6782 28.7274 79.8515 30.282 81.3621 31.5213C82.154 32.174 84.9479 35.3785 86.3265 34.5939C88.1451 33.5599 85.6959 30.3774 85.0066 29.3947C83.364 27.0408 81.5234 25.0536 79.0448 23.6163C79.1548 23.5796 79.2722 23.5503 79.3748 23.5063C82.638 22.091 80.4234 19.5244 78.2455 18.4171C78.6928 18.3951 79.1548 18.3511 79.6168 18.2705C81.8021 17.8965 84.2146 17.5885 86.2752 16.7672C88.0205 16.0706 89.0398 13.4967 87.0525 12.3527C85.4613 11.4361 83.7966 11.5094 82.0147 11.6047C81.9487 11.6047 81.8901 11.6121 81.8241 11.6194C83.7453 10.9888 85.5126 10.0135 86.7372 8.58352C88.0205 7.08758 90.9024 2.94441 88.1451 1.27981C85.1459 -0.53879 80.9588 2.24044 78.3995 3.78038C74.1097 6.36894 69.1452 9.3095 63.9681 8.75952C63.9607 8.75952 63.9534 8.75952 63.9461 8.75952C63.9094 8.66419 63.8727 8.56886 63.8214 8.47353C63.3374 7.5789 62.6041 6.47894 61.5628 6.17828C58.9083 4.71167 54.4058 5.06366 53.1518 8.01888C52.9172 8.56886 52.7705 9.1555 52.7045 9.75681C51.9639 10.1015 51.0179 10.0648 50.3873 10.6294C49.9693 11.0034 49.4633 11.5974 49.4046 12.1694V12.1841ZM62.0248 27.7008C62.0248 27.7008 62.0541 27.7008 62.0688 27.7008C62.1715 27.7448 62.2741 27.7301 62.3695 27.6861C62.9048 27.6568 63.4328 27.6275 63.9681 27.6055C62.7068 29.1967 59.7736 30.6267 57.8376 30.1354C56.8257 29.8787 57.647 29.4607 58.175 29.1967C58.5563 29.0134 58.9449 28.8007 59.3336 28.6468C60.2209 28.2874 61.1449 28.0528 62.0248 27.7008ZM61.1448 26.9675C59.5169 27.0408 57.8963 27.0481 56.2757 26.8722C55.4837 26.6155 54.8824 26.1315 54.3324 25.4055C56.657 25.3762 59.2309 25.6402 61.1448 26.9675ZM66.498 26.7328C65.376 26.7402 64.2541 26.7988 63.1248 26.8648C63.1101 26.8648 63.0954 26.8648 63.0808 26.8722C63.0514 26.8795 63.0221 26.8942 62.9854 26.8942C62.9708 26.8942 62.9561 26.8942 62.9488 26.8942C62.9341 26.8942 62.9268 26.8942 62.9121 26.8942C62.8681 26.9235 62.8241 26.9382 62.7655 26.9528C62.6701 26.9895 62.5748 26.9895 62.4941 26.9528C62.3108 26.9308 62.1568 26.8428 62.0321 26.7108C61.5188 26.2928 60.9615 25.9482 60.3675 25.6769C60.3822 25.6769 60.3969 25.6769 60.4115 25.6769C61.2255 25.6402 62.0688 25.4642 62.8755 25.5155C64.1881 25.5889 65.4567 25.9775 66.498 26.7402V26.7328ZM74.7917 11.9127C71.4111 11.8174 67.6346 11.9567 65.0094 9.60282C71.3305 9.74215 76.9476 5.27632 82.396 2.57042C84.002 1.77112 88.6438 0.121184 88.4605 3.67038C88.3871 5.04166 86.7959 7.52757 85.7986 8.48819C81.9561 12.1841 74.8577 11.8321 74.799 11.9054L74.7917 11.9127ZM75.525 17.4125C73.8017 16.8332 72.0858 16.2906 70.4065 15.4693C68.2946 14.4426 65.6913 13.2547 64.6427 10.9741C64.5034 10.6734 64.4447 10.3288 64.3421 10.0061C67.7079 13.2033 73.567 12.91 77.8569 12.5874C79.6535 12.448 81.4721 12.3307 83.2687 12.316C84.398 12.3087 86.1506 12.2647 86.9205 13.2767C88.3505 15.1393 86.0626 16.1732 84.8746 16.4372C81.7654 17.1192 78.6562 17.9845 75.5176 17.4125H75.525ZM74.4103 22.993C72.7971 22.597 71.1838 21.9443 69.8712 20.9104C68.1406 19.5391 67.202 17.6692 66.3293 15.6893C65.9407 14.8166 65.398 13.8633 64.9654 12.9027C65.0827 13.0274 65.2074 13.1447 65.3614 13.2473C65.376 13.2547 65.3907 13.2547 65.398 13.262C66.7033 14.5086 68.4412 15.3739 70.0105 16.1292C71.4038 16.7965 72.7971 17.4052 74.2637 17.8818C74.3003 17.9038 74.337 17.9332 74.381 17.9405C74.5203 17.9772 74.6523 18.0138 74.7917 18.0432C74.909 18.0798 75.019 18.1165 75.1363 18.1532C76.6909 18.5858 79.3968 19.2018 80.1228 20.8591C81.3107 23.5576 75.569 23.2716 74.403 22.9856L74.4103 22.993ZM74.205 23.7483C75.4736 24.0563 76.7716 24.1589 77.9962 23.9243C78.0329 23.9536 78.0769 23.9683 78.1209 23.9829C78.1355 23.9903 78.1355 24.0049 78.1502 24.0049C80.5334 25.2662 82.418 27.0481 83.958 29.2554C84.6619 30.2747 85.6006 31.3453 85.9452 32.5553C86.5685 34.7625 84.4493 33.1346 83.8553 32.6213C82.0514 31.1033 80.4968 29.3141 78.7075 27.8108C77.1016 26.4688 75.503 25.4055 74.2123 23.7336L74.205 23.7483ZM73.2517 23.7409C73.963 24.3349 74.2783 26.2635 74.0877 27.0775C73.8457 28.0601 73.1197 27.0335 72.9877 26.5128C72.7457 25.5522 72.7897 24.6282 73.2517 23.7483V23.7409ZM54.4058 15.1393C54.8531 15.6379 55.3664 16.0706 55.9677 16.3786C58.7103 17.8085 62.6701 16.2612 63.7408 13.4013C63.8287 13.1593 63.9094 12.9027 63.9827 12.6314C64.5401 14.208 65.508 15.8286 66.1753 17.1852C66.9893 18.8571 67.9279 20.4631 69.4752 21.5557C70.3625 22.1863 71.4258 22.7656 72.5551 23.2056C70.9931 24.2029 68.2506 24.0343 66.63 23.8949C64.6427 23.7189 62.4721 23.5063 60.6755 22.553C57.6983 20.9617 55.4251 18.3218 54.4058 15.1246V15.1393ZM54.1491 7.84289C55.3957 6.06829 58.2996 5.79697 60.4189 6.54494C61.0129 6.6916 62.3401 7.57156 62.4501 7.71089C62.7655 8.06288 63.0148 8.48086 63.1688 8.95018C63.1908 9.01617 63.1981 9.0895 63.2128 9.1555C63.3521 9.56615 63.4328 9.96214 63.4401 10.2555C63.4768 11.7514 63.2641 13.3133 62.1421 14.4353C60.3749 16.1952 57.053 16.9799 55.1318 14.8753C53.5845 13.1813 52.7338 9.84481 54.1491 7.83555V7.84289ZM50.1966 12.1327C50.6073 11.5314 50.9006 11.0914 51.6486 10.9008C51.9932 10.8128 52.3379 10.7321 52.6678 10.6148C52.6825 11.5094 52.8658 12.404 53.2032 13.2327C52.7558 13.1667 52.3085 13.1593 51.8759 13.0127C51.7146 12.9614 50.0866 12.294 50.1966 12.1327Z" fill="#152B5C"/>
<path d="M61.5263 26.6448C61.5263 26.6448 61.343 26.2562 61.8636 26.5495C61.9809 26.6155 62.3843 26.9308 63.1322 26.8721L62.7876 27.1875L61.8636 26.8721L61.7096 26.7548" fill="#152B5C"/>
</g>
<path d="M0.908325 48.4414H35.6141" stroke="#152B5C" stroke-width="0.807112" stroke-linecap="round"/>
<path d="M46.1492 44.6391C47.497 44.6273 48.6317 45.5045 49.0013 46.7377C49.0801 46.9991 49.1608 47.0434 49.2194 46.7968C49.5404 45.5346 50.678 44.5954 52.0372 44.5777C53.6705 44.561 54.9952 45.8576 55.0119 47.491C55.0635 51.4828 49.2035 54.4968 49.2035 54.4968C49.2035 54.4968 43.2821 51.6228 43.2418 47.6251C43.2251 45.9918 44.5217 44.6671 46.1551 44.6504L46.1492 44.6391Z" stroke="#AEC3F2" stroke-width="1.18766" stroke-linecap="round" stroke-linejoin="round"/>
<path d="M63.3859 48.4414H98.0917" stroke="#152B5C" stroke-width="0.807112" stroke-linecap="round"/>
<defs>
<clipPath id="clip0_139_140">
<rect width="79.5636" height="34.04" fill="white" transform="translate(9.71826 0.693115)"/>
</clipPath>
</defs>
</svg>
