<svg width="97" height="69" viewBox="0 0 97 69" fill="none" xmlns="http://www.w3.org/2000/svg">
<g clip-path="url(#clip0_105_663)">
<path d="M32.9933 31.2678L7.64441 42.074V68.0058H24.0106V42.074L32.9933 31.2678Z" stroke="#293451" stroke-width="0.738461" stroke-linecap="round" stroke-linejoin="round"/>
<path d="M65.0531 31.2678L74.0358 42.074V68.0058H90.402V42.074L65.0531 31.2678Z" stroke="#293451" stroke-width="0.738461" stroke-linecap="round" stroke-linejoin="round"/>
<path d="M20.259 48.6353C20.259 46.1841 18.2711 44.2112 15.8349 44.2112C13.3986 44.2112 11.4108 46.199 11.4108 48.6353V64.4485H20.2739V48.6353H20.259Z" stroke="#293451" stroke-width="0.738461" stroke-linecap="round" stroke-linejoin="round"/>
<path d="M15.835 44.2112V64.4485" stroke="#293451" stroke-width="0.738461" stroke-linecap="round" stroke-linejoin="round"/>
<path d="M11.3959 54.3298H20.259" stroke="#293451" stroke-width="0.738461" stroke-linecap="round" stroke-linejoin="round"/>
<path d="M86.6504 48.6353C86.6504 46.1841 84.6626 44.2112 82.2263 44.2112C79.7901 44.2112 77.8022 46.199 77.8022 48.6353V64.4485H86.6654V48.6353H86.6504Z" stroke="#293451" stroke-width="0.738461" stroke-linecap="round" stroke-linejoin="round"/>
<path d="M82.2114 44.2112V64.4485" stroke="#293451" stroke-width="0.738461" stroke-linecap="round" stroke-linejoin="round"/>
<path d="M77.7872 54.3298H86.6504" stroke="#293451" stroke-width="0.738461" stroke-linecap="round" stroke-linejoin="round"/>
<path d="M74.0358 42.3405C74.0358 42.1681 73.9755 42.0011 73.8653 41.8685L49.5985 12.67C49.3032 12.3147 48.7581 12.3147 48.4627 12.6698L24.1813 41.8685C24.071 42.0011 24.0106 42.1681 24.0106 42.3406V68.0055H74.0358V42.3405Z" stroke="#293451" stroke-width="0.738461" stroke-linecap="round" stroke-linejoin="round"/>
<path d="M57.0867 31.9252C57.0867 36.3792 53.4697 39.9962 49.0157 39.9962C44.5617 39.9962 40.9447 36.3792 40.9447 31.9252C40.9447 27.4712 44.5617 23.8542 49.0157 23.8542C53.4697 23.8542 57.0867 27.4712 57.0867 31.9252Z" stroke="#293451" stroke-width="0.738461" stroke-linecap="round" stroke-linejoin="round"/>
<path d="M41.0941 30.4158H56.9521" stroke="#293451" stroke-width="0.738461" stroke-linecap="round" stroke-linejoin="round"/>
<path d="M45.1445 24.8557L49.0306 30.4157L52.9017 24.8557" stroke="#293451" stroke-width="0.738461" stroke-linecap="round" stroke-linejoin="round"/>
<path d="M62.9456 62.2066C62.9456 53.762 57.4752 46.9016 49.0306 46.9016C40.5859 46.9016 35.1156 53.747 35.1156 62.2066V67.9908H62.9456V62.2066Z" stroke="#293451" stroke-width="0.738461" stroke-linecap="round" stroke-linejoin="round"/>
<path d="M58.4767 51.0417V68.0058" stroke="#293451" stroke-width="0.738461" stroke-linecap="round" stroke-linejoin="round"/>
<path d="M53.7537 48.0525V68.0058" stroke="#293451" stroke-width="0.738461" stroke-linecap="round" stroke-linejoin="round"/>
<path d="M49.0306 46.9314V68.0057" stroke="#293451" stroke-width="0.738461" stroke-linecap="round" stroke-linejoin="round"/>
<path d="M44.2926 48.0525V68.0058" stroke="#293451" stroke-width="0.738461" stroke-linecap="round" stroke-linejoin="round"/>
<path d="M39.5697 51.0417V68.0058" stroke="#293451" stroke-width="0.738461" stroke-linecap="round" stroke-linejoin="round"/>
<path d="M93.2716 53.7468V40.071L83.1381 35.9458" stroke="#293451" stroke-width="0.738461" stroke-linecap="round" stroke-linejoin="round"/>
<path d="M4.65515 53.7468V40.071L14.8037 35.9458" stroke="#293451" stroke-width="0.738461" stroke-linecap="round" stroke-linejoin="round"/>
<path d="M1.18762 68.0056H95.8126" stroke="#293451" stroke-width="0.738461" stroke-linecap="round" stroke-linejoin="round"/>
<path d="M23.7565 14.7967C22.3516 15.5142 21.6491 17.0387 21.9331 18.5184C21.9929 18.8322 21.9331 18.9219 21.7388 18.6977C20.7224 17.5618 19.0335 17.2031 17.6136 17.9205C15.9097 18.7874 15.2372 20.85 16.104 22.5539C18.2115 26.7239 25.9237 26.679 25.9237 26.679C25.9237 26.679 30.5123 20.4913 28.3899 16.3213C27.523 14.6174 25.4604 13.9448 23.7565 14.8117V14.7967Z" stroke="#AEC3F2" stroke-width="0.738461" stroke-linecap="round" stroke-linejoin="round"/>
<path d="M72.6159 14.7967C74.0208 15.5142 74.7233 17.0387 74.4393 18.5184C74.3795 18.8322 74.4393 18.9219 74.6336 18.6977C75.65 17.5618 77.3389 17.2031 78.7588 17.9205C80.4627 18.7874 81.1353 20.85 80.2684 22.5539C78.1609 26.7239 70.4487 26.679 70.4487 26.679C70.4487 26.679 65.8602 20.4913 67.9825 16.3213C68.8494 14.6174 70.912 13.9448 72.6159 14.8117V14.7967Z" stroke="#AEC3F2" stroke-width="0.738461" stroke-linecap="round" stroke-linejoin="round"/>
</g>
<defs>
<clipPath id="clip0_105_663">
<rect width="96" height="68.6931" fill="white" transform="translate(0.5)"/>
</clipPath>
</defs>
</svg>
