<svg width="29" height="21" viewBox="0 0 29 21" fill="none" xmlns="http://www.w3.org/2000/svg">
<g clip-path="url(#clip0_105_612)">
<path d="M7.55108 20.4183C3.31413 19.5733 0.54715 15.6586 0.425308 11.6025C0.425308 11.4807 0.425308 11.3627 0.425308 11.2409C0.54715 9.16567 1.39218 7.09043 2.87393 5.67549C3.73862 4.85011 4.66225 4.08369 5.74311 3.56488C7.44889 2.81418 9.40229 2.54691 11.3478 2.93602C15.5848 3.78105 18.3557 7.69571 18.4736 11.7519C18.4068 13.9725 17.5775 15.9652 16.2529 17.502C16.3473 17.5767 16.4377 17.6513 16.5241 17.73C17.9509 16.0556 18.8352 13.8978 18.902 11.5986C18.7409 5.93883 14.0441 1.90233 8.4983 2.3897C5.98679 2.6098 3.82115 3.86359 2.3001 5.68335C0.869441 7.15724 0.103017 9.30323 0.02441 11.3785C0.0165492 11.5042 0.000827702 11.6261 -0.00310267 11.7519C-0.164248 17.4312 5.09459 21.4284 10.4006 20.9607C12.1378 20.8074 13.706 20.1589 15.0149 19.1763C14.9166 19.0938 14.8183 19.0152 14.7201 18.9326C12.7824 20.3279 10.263 20.9568 7.55108 20.4183Z" fill="#152B5C"/>
<path d="M12.8059 17.84C10.4948 19.2235 6.52123 18.6261 4.65823 16.7081C4.61106 16.657 4.55211 16.6452 4.50101 16.653C3.2315 15.3167 2.47294 13.4852 2.42185 11.6143C2.29214 7.14546 6.63914 3.87145 10.9311 4.744C14.2326 5.41609 16.3865 8.51716 16.4808 11.7322C16.4729 12.0348 16.4454 12.3375 16.4022 12.6283C16.2293 13.3319 15.9738 14.0118 15.7183 14.7232C15.6004 15.0455 15.4471 15.3442 15.2624 15.6272C15.2388 15.6626 15.2152 15.7019 15.1877 15.7373C15.0344 15.9613 14.8576 16.1696 14.6689 16.3661C14.7868 16.3976 14.8969 16.4487 14.9991 16.5233C15.0894 16.4172 15.1838 16.3111 15.2702 16.201C15.9699 15.301 16.4769 14.2398 16.7363 13.1C16.7363 13.0921 16.7402 13.0843 16.7441 13.0764C16.8503 12.5969 16.9131 12.1095 16.9289 11.6104C16.7992 7.13366 13.0889 3.9422 8.70259 4.32738C4.89798 4.66146 2.0799 7.9787 1.97378 11.7322C1.84408 16.2246 6.00242 19.3807 10.2001 19.0152C10.6992 18.972 11.1827 18.8737 11.6425 18.7322C11.9294 18.6536 12.2124 18.5632 12.4757 18.4453C12.857 18.2763 13.2147 18.0758 13.5487 17.8479C13.4505 17.7496 13.3483 17.6514 13.25 17.5531C13.1046 17.6514 12.9553 17.7457 12.8059 17.8361V17.84Z" fill="#152B5C"/>
<path d="M19.2478 3.39584C17.8722 3.51768 16.6105 3.9736 15.51 4.66535C15.6279 4.75968 15.738 4.86187 15.848 4.96406C16.1114 4.79505 16.3747 4.62997 16.6577 4.49634C18.2574 3.7928 20.0928 3.54126 21.9165 3.90679C25.8941 4.70072 28.4881 8.37169 28.6021 12.1763C28.4488 17.4273 23.8031 21.393 18.3517 20.3043C14.3741 19.5104 11.7801 15.8394 11.6661 12.0348C11.6661 11.9208 11.6661 11.8108 11.6661 11.6968C11.7801 9.75126 12.574 7.80572 13.9654 6.47332C14.0597 6.38292 14.1619 6.29252 14.2602 6.20606C14.1698 6.12352 14.099 6.06063 14.044 6.02133C14.0047 5.99382 13.9693 5.96237 13.9339 5.93093C13.7571 6.1078 13.592 6.29252 13.4309 6.48511C12.0827 7.86861 11.3635 9.88096 11.2888 11.8265C11.2809 11.9444 11.2652 12.0584 11.2613 12.1802C11.108 17.5098 16.0446 21.2555 21.0204 20.8192C25.5325 20.4222 28.8733 16.4879 29.003 12.0348C28.8497 6.72487 24.4438 2.93991 19.2439 3.39584H19.2478Z" fill="#152B5C"/>
<path d="M19.4365 5.21953C18.4539 5.30599 17.5421 5.60863 16.7324 6.07242C16.7874 6.16282 16.8424 6.25715 16.8935 6.35147C18.2613 5.58898 19.8964 5.27455 21.5275 5.60863C24.6246 6.23749 26.6448 9.14597 26.7352 12.1645C26.7273 12.4514 26.6998 12.7305 26.6605 13.0056C26.4994 13.6659 26.2596 14.3026 26.0199 14.9708C25.9098 15.2734 25.7644 15.5525 25.5915 15.8198C25.5679 15.8551 25.5443 15.8905 25.5247 15.9219C24.9626 16.7395 24.1372 17.384 23.2883 17.8911C21.1187 19.1881 17.3927 18.63 15.6476 16.8299C15.6005 16.7827 15.5494 16.7709 15.5022 16.7788C14.3113 15.525 13.5999 13.8074 13.5488 12.0505C13.4977 10.2858 14.1934 8.72149 15.3135 7.56203C15.2939 7.5188 15.2742 7.47163 15.2703 7.46377C15.2389 7.40875 15.2035 7.35372 15.172 7.29476C13.9458 8.57214 13.1833 10.3094 13.1322 12.1606C13.0103 16.3739 16.9132 19.3374 20.8475 18.9916C21.3152 18.9523 21.7672 18.8579 22.1996 18.7282C22.4707 18.6536 22.7341 18.5671 22.9778 18.461C24.0429 17.9893 24.9233 17.2504 25.6033 16.3543C26.2596 15.5093 26.7352 14.5149 26.9789 13.4458C26.9789 13.4379 26.9828 13.4301 26.9868 13.4222C27.085 12.9742 27.1479 12.5143 27.1597 12.0466C27.0378 7.84895 23.5555 4.854 19.4444 5.2156L19.4365 5.21953Z" fill="#152B5C"/>
<path d="M18.8548 3.3251C18.9217 3.38405 18.9845 3.43515 19.0474 3.48624C19.2164 3.46266 19.3854 3.44301 19.5544 3.43122C19.4326 3.3251 19.3068 3.21112 19.185 3.10107V1.65862H20.0615V3.40371C20.1912 3.40371 20.3209 3.40371 20.4506 3.40371V0.192588C20.4506 0.062886 20.3445 0.00393038 20.2462 0.00786075C20.2344 0.00786075 20.2187 0 20.2069 0H18.4972C18.4461 0 18.4068 0.0196519 18.3753 0.0471645C18.3518 0.0510949 18.3282 0.0589556 18.3007 0.0786075C17.8015 0.412689 17.3102 0.774284 16.9643 1.27344C16.9014 1.36384 17.0626 1.73723 17.1373 1.78439C17.774 2.1735 18.2967 2.84166 18.8588 3.32903L18.8548 3.3251ZM19.1811 0.389107H20.0575V1.26558H19.1811V0.389107ZM18.505 0.412689C18.505 0.412689 18.5168 0.396968 18.5247 0.393038H18.7959V1.26951H17.4674C17.7622 0.927569 18.1395 0.660303 18.509 0.412689H18.505ZM17.6325 1.65862H18.792V2.73947C18.7409 2.69231 18.6976 2.653 18.678 2.63335C18.34 2.31892 18.0059 1.9534 17.6325 1.65862Z" fill="#152B5C"/>
<path d="M23.5437 1.26954C23.1979 0.770378 22.7026 0.408783 22.2074 0.0747013C22.1838 0.0589798 22.1563 0.0471886 22.1327 0.0432583C22.1013 0.0157456 22.062 -0.00390625 22.0109 -0.00390625H20.3012C20.3012 -0.00390625 20.2737 2.41259e-05 20.2619 0.0039545C20.1597 -0.00390625 20.0575 0.0550494 20.0575 0.188682V3.40373C20.1872 3.40373 20.3169 3.40373 20.4466 3.40373V1.65864H21.3388C21.3545 2.07919 21.3899 2.50367 21.3663 2.92422C21.3309 2.97139 21.3152 3.03034 21.3388 3.0893C21.213 3.20328 21.0833 3.32119 20.9576 3.42731C21.0873 3.4391 21.217 3.45089 21.3427 3.46269C21.4253 3.41552 21.5157 3.37229 21.6139 3.35263C21.6257 3.34084 21.6375 3.33298 21.6532 3.32119C22.2153 2.83383 22.738 2.16566 23.3747 1.77655C23.4494 1.73332 23.6106 1.356 23.5477 1.26561L23.5437 1.26954ZM21.3231 1.26954H20.4466V0.389131H21.3231V1.26561V1.26954ZM21.8301 2.63338C21.8301 2.63338 21.7947 2.66875 21.7672 2.69233C21.7672 2.34646 21.7436 2.00059 21.7318 1.65864H22.8795C22.5061 1.95342 22.172 2.31895 21.834 2.63338H21.8301ZM21.7161 1.26954V0.393062H21.9873C21.9873 0.393062 21.9991 0.408783 22.007 0.412714C22.3764 0.660327 22.7537 0.931523 23.0446 1.26954H21.7161Z" fill="#152B5C"/>
</g>
<defs>
<clipPath id="clip0_105_612">
<rect width="29.014" height="21" fill="white" transform="translate(-0.00708008)"/>
</clipPath>
</defs>
</svg>
