<svg width="121" height="56" viewBox="0 0 121 56" fill="none" xmlns="http://www.w3.org/2000/svg">
<path d="M0.581287 37.8721L1.04024 36.1323C0.884426 33.1626 3.40691 30.7504 6.33376 30.7249C10.7505 30.6858 14.9222 30.6494 18.2547 28.2633C21.6532 25.7796 25.1938 22.8227 27.6498 19.4018C28.0952 18.7841 28.8645 18.4311 29.6968 18.5934L31.011 16.9278C31.8602 15.8599 33.3031 15.9141 33.9776 17.0564C34.5696 18.0715 35.1183 19.5942 34.8712 21.5082C40.1557 23.9004 45.2387 23.4877 50.2987 20.256C51.618 19.4169 53.3694 19.9721 53.94 21.4102C55.778 26.04 55.9889 30.2918 54.5883 34.4053C54.5765 37.2885 54.5724 39.3289 54.571 40.7645C54.5696 42.0927 53.4859 43.1729 52.1556 43.1729H40.6941C39.3622 43.1729 38.2786 42.0892 38.2786 40.7572V39.9901C35.3422 40.5446 32.346 41.2808 29.3613 42.1815C25.7173 43.275 20.3753 43.3674 16.5749 43.1723C11.4949 42.925 6.39458 42.0835 2.21218 40.8035C0.965023 40.421 0.248703 39.1337 0.581287 37.8721ZM6.34375 31.8707C4.15611 31.8896 2.24829 33.6036 2.18016 35.7556L2.18457 35.7571C10.9287 38.7725 23.0708 39.0616 28.2382 37.5191C29.2317 37.2187 30.2264 36.9424 31.2214 36.6773C34.4006 35.8294 37.3368 35.2177 40.3235 34.7486C37.8439 30.4803 34.1939 29.0757 28.594 30.2097C24.051 31.1217 21.2849 27.6178 21.1295 27.5182C20.4337 28.0656 19.7025 28.6241 18.9261 29.192C15.2944 31.7918 10.7443 31.8321 6.34375 31.8707ZM32.9896 17.6367C32.717 17.1745 32.2433 17.219 31.9093 17.639L30.7505 19.1078C31.7621 19.8277 32.7647 20.4433 33.76 20.9651C33.854 19.5415 33.4415 18.4118 32.9896 17.6367ZM52.875 21.8333C52.5604 21.0396 51.6048 20.7841 50.9147 21.2224C44.0357 25.6165 37.1398 25.174 29.8351 19.8685C29.4196 19.5681 28.8636 19.678 28.5799 20.0711C26.798 22.5528 24.3816 24.8689 22.0311 26.7993C22.2154 26.9177 24.449 29.8797 28.3674 29.0864C34.617 27.8214 38.8135 29.5614 41.5395 34.5636C45.6602 33.9952 49.4928 33.7107 53.6034 33.7412C54.8033 29.9869 54.5637 26.0869 52.875 21.8333ZM2.54778 39.7083C6.64141 40.9614 11.6427 41.785 16.632 42.0279C20.2865 42.2169 25.5291 42.1345 29.0309 41.0846C33.3209 39.7897 38.4163 38.7292 38.8513 38.7292C39.1706 38.7292 39.4241 38.9885 39.4241 39.3021V40.7573C39.4241 41.4577 39.9936 42.0272 40.6938 42.0272H52.1555C52.8548 42.0272 53.4244 41.4605 53.4252 40.7634C53.4266 39.4129 53.4303 37.5288 53.4405 34.9111C49.2181 35.145 42.9764 34.7257 31.5162 37.7842C28.3948 38.615 27.7309 39.0084 24.6724 39.3461C24.6126 39.3461 12.9782 40.625 2.01876 36.9142L1.68897 38.1641C1.51392 38.8288 1.89132 39.5069 2.54778 39.7083Z" fill="#152B5C"/>
<g clip-path="url(#clip0_105_687)">
<path d="M111.739 34.6149C108.797 34.1355 106.637 33.3777 106.616 33.3701C106.386 33.2887 106.131 33.3413 105.952 33.505C105.682 33.711 103.863 34.6864 101.174 34.6864C98.0249 34.6864 96.6188 33.4018 93.6049 30.8678C85.6656 24.1932 70.2623 14.4234 70.1077 14.3256C69.9559 14.2295 69.7711 14.1997 69.597 14.2432C69.4227 14.2867 69.2737 14.3996 69.1849 14.5557C63.5153 24.5137 66.6742 28.9156 66.8258 29.0864C67.9172 30.3158 70.8216 33.2911 70.7278 43.1848C70.7261 43.3658 70.7813 43.5431 70.9055 43.6748C71.0298 43.8068 71.2028 43.8815 71.384 43.8815H74.1649C74.5279 43.8815 74.8222 43.5872 74.8222 43.2241V35.6884C74.8222 34.1171 75.1762 33.0649 75.8829 32.5732C76.8666 31.8886 78.1276 32.3985 78.1506 32.404C84.6582 35.1122 89.3149 40.0405 89.3149 40.0405C91.0135 41.7774 92.5354 43.8477 98.3281 43.8477C105.949 43.8477 118.074 41.0088 118.586 40.8879C118.877 40.8194 119.085 40.5635 119.093 40.2649C119.171 37.218 115.336 35.2002 111.739 34.6149ZM73.5075 35.6884V42.5667H72.0648C72.1056 40.4269 71.961 33.9277 68.9857 29.6378C71.2308 30.0637 73.3668 30.6293 75.3912 31.3319C75.3054 31.3799 73.5075 32.1039 73.5075 35.6884ZM98.3282 42.5329C92.9928 42.5329 91.7771 40.6776 90.2549 39.1212C90.2549 39.1212 87.6995 36.2577 83.4128 33.6541C78.806 30.8562 73.996 29.1231 67.7553 28.0879C67.5579 27.708 65.8741 23.8397 69.7732 16.2283C69.8877 16.0047 70.167 15.9233 70.3783 16.0592C73.8902 18.3164 86.0408 26.2264 92.759 31.8744C96.0162 34.6128 97.7071 36.0015 101.174 36.0015C103.583 36.0015 105.434 35.2962 106.325 34.8118C106.433 34.7528 106.56 34.7377 106.678 34.7749C107.504 35.0353 109.282 35.547 111.528 35.9127C114.357 36.3733 117.324 37.838 117.732 39.7348C115.238 40.2962 104.893 42.5329 98.3282 42.5329Z" fill="#152B5C"/>
</g>
<defs>
<clipPath id="clip0_105_687">
<rect width="55" height="55" fill="white" transform="translate(65.8125 0.693115)"/>
</clipPath>
</defs>
</svg>
